<?xml version="1.0" encoding="UTF-8"?>
<svg xmlns="http://www.w3.org/2000/svg" xmlns:xlink="http://www.w3.org/1999/xlink" viewBox="0 0 2334.94 2334.93">
  <defs>
    <linearGradient id="linear-gradient" x1="960.3" y1="527.13" x2="832.18" y2="48.95" gradientUnits="userSpaceOnUse">
      <stop offset=".39" stop-color="#0325ad"/>
      <stop offset=".54" stop-color="#161618"/>
    </linearGradient>
    <linearGradient id="linear-gradient-2" x1="960.3" y1="1807.81" x2="832.18" y2="2285.98" gradientUnits="userSpaceOnUse">
      <stop offset=".25" stop-color="#161618"/>
      <stop offset=".45" stop-color="#0325ad"/>
    </linearGradient>
    <linearGradient id="linear-gradient-3" x1="1307.87" y1="1823.89" x2="1436.46" y2="2303.81" gradientUnits="userSpaceOnUse">
      <stop offset=".24" stop-color="#161618"/>
      <stop offset=".44" stop-color="#beff03"/>
    </linearGradient>
    <linearGradient id="linear-gradient-4" x1="1305.91" y1="518.33" x2="1437.18" y2="28.43" gradientUnits="userSpaceOnUse">
      <stop offset=".42" stop-color="#ef2121"/>
      <stop offset=".6" stop-color="#161618"/>
    </linearGradient>
    <radialGradient id="radial-gradient" cx="1189.36" cy="1167.47" fx="1189.36" fy="1167.47" r="839.32" gradientTransform="translate(1173.88 -499.06) rotate(45)" gradientUnits="userSpaceOnUse">
      <stop offset=".65" stop-color="#f0f0f0"/>
      <stop offset="1" stop-color="#f0f0f0" stop-opacity="0"/>
    </radialGradient>
  </defs>
  <g style="isolation: isolate;">
    <g id="Layer_2" data-name="Layer 2">
      <g id="Layer_1-2" data-name="Layer 1">
        <g>
          <g>
            <path d="m2334.44,1167.47h-461.96c0-135.25-38.07-261.61-104.08-368.94h0s400.14-231.03,400.14-231.03c105.3,175.33,165.9,380.56,165.9,599.97Z" style="fill: #161618; stroke-width: 0px;"/>
            <path d="m2334.44,1167.47c0,219.41-60.6,424.64-165.9,599.96l-400.14-231.02c66.01-107.33,104.08-233.69,104.08-368.94h461.96Z" style="fill: #161618; stroke-width: 0px;"/>
            <path d="m1129.37,1.18v462.04c-125.85,6.66-242.95,46.31-342.82,110.47l-230.95-400.02C723.39,70.14,919.36,7.92,1129.37,1.18Z" style="fill: #161618; stroke-width: 0px;"/>
            <path d="m2168.54,567.5l-400.14,231.02c-67.11-109.1-163.06-198.53-277.25-257.68l231.1-400.27c184.29,99.77,338.65,247.72,446.29,426.93Z" style="fill: #161618; stroke-width: 0px;"/>
            <path d="m786.55,1761.25l-230.95,400.02c-169.91-104.83-310.89-252.01-408.25-426.83l399.75-230.8c56.89,104.73,139.55,193.44,239.45,257.61Z" style="fill: #161618; stroke-width: 0px;"/>
            <path d="m1129.37,1871.72v462.03c-210.01-6.74-405.98-68.95-573.77-172.48l230.95-400.02c99.87,64.16,216.97,103.81,342.82,110.47Z" style="fill: #161618; stroke-width: 0px;"/>
            <path d="m2168.54,1767.43c-107.64,179.22-262,327.16-446.29,426.93l-231.1-400.27c114.19-59.14,210.15-148.58,277.25-257.68l400.14,231.02Z" style="fill: #161618; stroke-width: 0px;"/>
            <path d="m1722.25,2194.36c-165.01,89.34-353.96,140.07-554.78,140.07-12.75,0-25.44-.27-38.1-.68v-462.03c12.53.66,25.16,1,37.86,1,116.78,0,226.92-28.38,323.92-78.63l231.1,400.27Z" style="fill: #161618; stroke-width: 0px;"/>
            <path d="m547.1,1503.64l-399.75,230.8C53.85,1566.57.5,1373.26.5,1167.47h461.48c0,121.72,30.83,236.24,85.12,336.17Z" style="fill: #161618; stroke-width: 0px;"/>
            <path d="m1722.25,140.57l-231.1,400.27c-97-50.24-207.14-78.62-323.92-78.62-12.7,0-25.33.34-37.86,1V1.18c12.66-.4,25.35-.68,38.1-.68,200.82,0,389.77,50.74,554.78,140.07Z" style="fill: #161618; stroke-width: 0px;"/>
            <path d="m786.55,573.69c-99.9,64.17-182.56,152.88-239.45,257.61l-399.75-230.8c97.36-174.82,238.34-322,408.25-426.83l230.95,400.02Z" style="fill: #161618; stroke-width: 0px;"/>
            <path d="m547.1,831.3c-54.29,99.93-85.12,214.45-85.12,336.17H.5c0-205.79,53.35-399.1,146.85-566.97l399.75,230.8Z" style="fill: #161618; stroke-width: 0px;"/>
          </g>
          <g>
            <path d="m2334.44,1167.47h-461.96c0-135.25-38.07-261.61-104.08-368.94h0s400.14-231.03,400.14-231.03c105.3,175.33,165.9,380.56,165.9,599.97Z" style="fill: #b8c4dc; stroke: #161618; stroke-linejoin: round;"/>
            <path d="m2334.44,1167.47c0,219.41-60.6,424.64-165.9,599.96l-400.14-231.02c66.01-107.33,104.08-233.69,104.08-368.94h461.96Z" style="fill: #ef2121; stroke: #161618; stroke-miterlimit: 10;"/>
            <path d="m1129.37,1.18v462.04c-125.85,6.66-242.95,46.31-342.82,110.47l-230.95-400.02C723.39,70.14,919.36,7.92,1129.37,1.18Z" style="fill: url(#linear-gradient); stroke: #161618; stroke-miterlimit: 10;"/>
            <path d="m2168.54,567.5l-400.14,231.02c-67.11-109.1-163.06-198.53-277.25-257.68l231.1-400.27c184.29,99.77,338.65,247.72,446.29,426.93Z" style="fill: #0325ad; stroke: #161618; stroke-miterlimit: 10;"/>
            <path d="m786.55,1761.25l-230.95,400.02c-169.91-104.83-310.89-252.01-408.25-426.83l399.75-230.8c56.89,104.73,139.55,193.44,239.45,257.61Z" style="fill: #ef2121; stroke: #161618; stroke-miterlimit: 10;"/>
            <path d="m1129.37,1871.72v462.03c-210.01-6.74-405.98-68.95-573.77-172.48l230.95-400.02c99.87,64.16,216.97,103.81,342.82,110.47Z" style="fill: url(#linear-gradient-2); stroke: #161618; stroke-miterlimit: 10;"/>
            <path d="m2168.54,1767.43c-107.64,179.22-262,327.16-446.29,426.93l-231.1-400.27c114.19-59.14,210.15-148.58,277.25-257.68l400.14,231.02Z" style="fill: #0325ad; stroke: #161618; stroke-miterlimit: 10;"/>
            <path d="m1722.25,2194.36c-165.01,89.34-353.96,140.07-554.78,140.07-12.75,0-25.44-.27-38.1-.68v-462.03c12.53.66,25.16,1,37.86,1,116.78,0,226.92-28.38,323.92-78.63l231.1,400.27Z" style="fill: url(#linear-gradient-3); stroke: #161618; stroke-miterlimit: 10;"/>
            <path d="m547.1,1503.64l-399.75,230.8C53.85,1566.57.5,1373.26.5,1167.47h461.48c0,121.72,30.83,236.24,85.12,336.17Z" style="fill: #beff03; stroke: #161618; stroke-miterlimit: 10;"/>
            <path d="m1722.25,140.57l-231.1,400.27c-97-50.24-207.14-78.62-323.92-78.62-12.7,0-25.33.34-37.86,1V1.18c12.66-.4,25.35-.68,38.1-.68,200.82,0,389.77,50.74,554.78,140.07Z" style="fill: url(#linear-gradient-4); stroke: #161618; stroke-miterlimit: 10;"/>
            <path d="m786.55,573.69c-99.9,64.17-182.56,152.88-239.45,257.61l-399.75-230.8c97.36-174.82,238.34-322,408.25-426.83l230.95,400.02Z" style="fill: #b8c4dc; stroke: #161618; stroke-linejoin: round;"/>
            <path d="m547.1,831.3c-54.29,99.93-85.12,214.45-85.12,336.17H.5c0-205.79,53.35-399.1,146.85-566.97l399.75,230.8Z" style="fill: #0325ad; stroke: #161618; stroke-miterlimit: 10;"/>
          </g>
        </g>
        <circle cx="1189.36" cy="1167.47" r="839.32" transform="translate(-477.17 1182.95) rotate(-45)" style="fill: url(#radial-gradient); mix-blend-mode: overlay; opacity: .13; stroke-width: 0px;"/>
      </g>
    </g>
  </g>
</svg>