<svg xmlns="http://www.w3.org/2000/svg" xmlns:xlink="http://www.w3.org/1999/xlink" viewBox="0 0 795 158.49"><defs><style>.cls-1,.cls-2,.cls-3,.cls-4,.cls-5,.cls-6,.cls-7{stroke:#000;stroke-linecap:round;stroke-linejoin:round;stroke-width:2px;}.cls-1{fill:url(#linear-gradient);}.cls-2{fill:url(#linear-gradient-2);}.cls-3{fill:url(#linear-gradient-3);}.cls-4{fill:url(#linear-gradient-4);}.cls-5{fill:url(#linear-gradient-5);}.cls-6{fill:url(#linear-gradient-6);}.cls-7{fill:url(#linear-gradient-7);}</style><linearGradient id="linear-gradient" x1="74.15" y1="2.53" x2="74.15" y2="157.49" gradientUnits="userSpaceOnUse"><stop offset="0" stop-color="#ffaac7"/><stop offset="0.12" stop-color="#ffaac7"/><stop offset="1" stop-color="#dfd5cb"/></linearGradient><linearGradient id="linear-gradient-2" x1="309.25" y1="157.49" x2="309.25" y2="2.53" gradientUnits="userSpaceOnUse"><stop offset="0" stop-color="#dfd5cb"/><stop offset="1" stop-color="#ffaac7"/></linearGradient><linearGradient id="linear-gradient-3" x1="551.53" y1="157.49" x2="551.53" y2="2.53" xlink:href="#linear-gradient-2"/><linearGradient id="linear-gradient-4" x1="656.39" y1="157.49" x2="656.39" y2="57.28" xlink:href="#linear-gradient-2"/><linearGradient id="linear-gradient-5" x1="717.83" y1="157.49" x2="717.83" y2="2.53" xlink:href="#linear-gradient-2"/><linearGradient id="linear-gradient-6" x1="169.22" y1="1" x2="169.22" y2="157.49" gradientUnits="userSpaceOnUse"><stop offset="0" stop-color="#ffaac7"/><stop offset="1" stop-color="#dfd5cb"/></linearGradient><linearGradient id="linear-gradient-7" x1="420.68" y1="3.97" x2="420.68" y2="157.49" xlink:href="#linear-gradient-6"/></defs><g id="Layer_2" data-name="Layer 2"><g id="Layer_1-2" data-name="Layer 1"><path class="cls-1" d="M127.2,2.53a20.1,20.1,0,0,1,0,40.19H95.94V157.49H1l69.07-155ZM95.94,13.83V30.51h23a8.34,8.34,0,0,0,0-16.68Z"/><path class="cls-2" d="M288,114.91l10.1,42.58h-58.3V2.53H285s24.29,17,58,63.14c33.6,45.94,35.72,91.82,35.72,91.82H327.43L316.4,111C314,101,308.08,90.77,296,94,283.1,97.52,288,114.91,288,114.91Zm-6.69-81.56a22.59,22.59,0,1,0,22.59,22.59A22.59,22.59,0,0,0,281.29,33.35Z"/><path class="cls-3" d="M550.17,112.62c-13,0-18.67-2.89-18.67-12.11s5.34-12.35,18.67-12.35H585.5l-5.74-27.28H546.58a15.08,15.08,0,0,1,0-30.16h26.67L567.6,2.53H503v155h97.09l-11.51-44.87Z"/><path class="cls-4" d="M669.45,70.34a13.07,13.07,0,0,0-26.13,0v87.15h26.13Z"/><path class="cls-5" d="M679.49,157.49,706.28,31.43H657.16a15.5,15.5,0,0,1-15.49-15.5V2.53H794v13.4a15.5,15.5,0,0,1-15.5,15.5H729.39l26.79,126.06Z"/><path class="cls-6" d="M157.23,132v25.47H108.94V54.82h48.29v29L203.36,60.6V17.29c0-8.74,4.1-16.29,13.07-16.29S229.5,8.55,229.5,17.29v140.2H203.36V132c0-15.06-9.32-25.23-24.15-25.23C166,106.79,157.23,117.58,157.23,132Z"/><path class="cls-7" d="M391.89,88.16a42.1,42.1,0,1,1,0-84.19h64.84l5.46,26.61h-70.3a15.15,15.15,0,1,0,0,30.3h46.25c15.49,0,28.61,3.33,37.93,11.09,10.14,8.43,15.5,20.65,15.5,35.32,0,28.62-24.11,50.2-56.08,50.2H389.76a183.84,183.84,0,0,0-8.53-44.87h51.61c14.65,0,17.63-6,17.63-12s-4.3-12.44-17.63-12.44Z"/></g></g></svg>