<svg xmlns="http://www.w3.org/2000/svg" viewBox="0 0 84.89 78.41"><defs><style>.cls-1,.cls-3{fill:#beff03;}.cls-2{fill:#0325ad;}.cls-2,.cls-3,.cls-4,.cls-5{stroke:#000;stroke-width:2px;}.cls-2,.cls-3{stroke-miterlimit:10;}.cls-4{fill:#dfd5cb;}.cls-4,.cls-5{stroke-linejoin:bevel;}.cls-5{fill:none;}</style></defs><g id="Layer_2" data-name="Layer 2"><g id="Layer_1-2" data-name="Layer 1"><path class="cls-1" d="M1.26,24.22l7.45,4.21,1.65-2.92,1.73,1L9.17,31.64,0,26.46Z"/><path class="cls-1" d="M10.27,15.48,7.75,18.43l1.62,1.38L11.6,17.2l1.5,1.29L10.87,21.1l1.75,1.5,2.53-3L16.71,21l-4.19,4.9L4.52,19l4.19-4.9Z"/><path class="cls-1" d="M10.69,12.15l6.49-4.93,1.24,1.64L16.2,10.54l5.13,6.75-2,1.56L14.16,12.1l-2.22,1.69Z"/><path class="cls-1" d="M21.22,9.66,20.07,5.73,22.4,4.52l.35,4.34Z"/><path class="cls-1" d="M31.83,12.29c-2.17.67-4.19.12-4.89-1.9l2.61-.8a1.21,1.21,0,0,0,1.6.76c.72-.22,1.06-.72.88-1.31-.57-1.86-5.29.7-6.37-2.88-.58-1.91.65-3.45,2.76-4.1s4,0,4.69,1.85l-2.65.81A1.13,1.13,0,0,0,29,4a.93.93,0,0,0-.75,1.23C28.77,7,33.5,4.7,34.54,8.06,35.06,9.75,34.18,11.57,31.83,12.29Z"/><path class="cls-1" d="M43.64,6.82l-1.59,0L42,10.57l-2.56,0L39.6,0l4.15.07c2.58,0,3.85,1.52,3.82,3.45C47.54,5.26,46.33,6.86,43.64,6.82Zm-.16-2.05c1,0,1.47-.48,1.48-1.29s-.42-1.33-1.44-1.35l-1.39,0,0,2.64Z"/><path class="cls-1" d="M55.63,8.31,51.79,7.23l-1.17,4.18-2.47-.69L51,.57l2.47.69-1.11,4,3.84,1.07,1.11-4L59.77,3,56.93,13.18l-2.47-.7Z"/><path class="cls-1" d="M64.57,15.51l-3.35-2.06L59.71,14.7l-2.28-1.41,8.78-7L68.73,7.9l-2.3,11-2.31-1.42Zm1.39-6-3.12,2.6,2.21,1.36Z"/><path class="cls-1" d="M69.27,22.18c-1.56-1.64-2-3.7-.48-5.22l1.88,2a1.22,1.22,0,0,0,0,1.78c.52.54,1.12.63,1.57.21,1.41-1.35-3-4.44-.25-7,1.44-1.38,3.37-1,4.89.64s1.83,3.56.44,5l-1.91-2a1.14,1.14,0,0,0,0-1.64A.94.94,0,0,0,74,15.83c-1.32,1.26,2.87,4.46.31,6.89C73,24,71,24,69.27,22.18Z"/><path class="cls-1" d="M83.13,26.89l-2-3.33L79.3,24.67l1.77,2.94-1.69,1L77.6,25.69l-2,1.19,2,3.33-1.76,1.06-3.33-5.52,9-5.44,3.33,5.52Z"/><circle class="cls-2" cx="42.58" cy="47.44" r="29.98"/><circle class="cls-3" cx="42.58" cy="47.44" r="19.89"/><line class="cls-4" x1="32.95" y1="47.46" x2="50.68" y2="47.46"/><polyline class="cls-5" points="44.48 41.27 50.68 47.46 44.48 53.66"/></g></g></svg>