<?xml version="1.0" encoding="UTF-8"?>
<svg id="Layer_2" data-name="Layer 2" xmlns="http://www.w3.org/2000/svg" xmlns:xlink="http://www.w3.org/1999/xlink" viewBox="0 0 88.41 88.41">
  <defs>
    <style>
      .cls-1 {
        mask: url(#mask);
      }

      .cls-2 {
        fill: url(#linear-gradient);
        stroke-width: 0px;
      }

      .cls-3 {
        stroke: #000;
        stroke-miterlimit: 10;
      }

      .cls-4 {
        filter: url(#luminosity-invert);
      }
    </style>
    <filter id="luminosity-invert" x="-1.45" y="-1.56" width="91.3" height="91.54" color-interpolation-filters="sRGB" filterUnits="userSpaceOnUse">
      <feColorMatrix result="cm" values="-1 0 0 0 1 0 -1 0 0 1 0 0 -1 0 1 0 0 0 1 0"/>
    </filter>
    <mask id="mask" x="-1.45" y="-1.56" width="91.3" height="91.54" maskUnits="userSpaceOnUse">
      <g class="cls-4">
        <polygon class="cls-3" points="62.07 0 61.06 23.61 88.1 12.95 68.25 35.68 88.41 44.21 61.36 52.74 62.84 75.47 44.42 64.8 26.35 88.41 27.35 64.8 .32 75.47 20.16 52.74 0 44.21 27.06 35.68 25.58 12.95 44 23.61 62.07 0"/>
      </g>
    </mask>
    <linearGradient id="linear-gradient" x1="676.94" y1="86.18" x2="696.32" y2="2.24" gradientTransform="translate(-624.56) skewX(-22)" gradientUnits="userSpaceOnUse">
      <stop offset=".35" stop-color="#beff03"/>
      <stop offset=".85" stop-color="#f0f0f0"/>
    </linearGradient>
  </defs>
  <g id="Layer_1-2" data-name="Layer 1">
    <g id="_8" data-name="8">
      <g class="cls-1">
        <polygon class="cls-2" points="62.07 0 61.06 23.61 88.1 12.95 68.25 35.68 88.41 44.21 61.36 52.74 62.84 75.47 44.42 64.8 26.35 88.41 27.35 64.8 .32 75.47 20.16 52.74 0 44.21 27.06 35.68 25.58 12.95 44 23.61 62.07 0"/>
      </g>
    </g>
  </g>
</svg>