<svg xmlns="http://www.w3.org/2000/svg" xmlns:xlink="http://www.w3.org/1999/xlink" viewBox="0 0 1920 1080"><defs><style>.cls-1{fill:none;}.cls-2{isolation:isolate;}.cls-3{clip-path:url(#clip-path);}.cls-4{fill:#161618;}.cls-5{fill:#b8c4dc;stroke-linejoin:round;}.cls-10,.cls-11,.cls-5,.cls-6,.cls-7,.cls-8,.cls-9{stroke:#161618;}.cls-6{fill:#ef2121;}.cls-10,.cls-11,.cls-6,.cls-7,.cls-8,.cls-9{stroke-miterlimit:10;}.cls-7{fill:url(#linear-gradient);}.cls-8{fill:#0325ad;}.cls-9{fill:url(#linear-gradient-2);}.cls-10{fill:#beff03;}.cls-11{fill:url(#linear-gradient-3);}.cls-12{mix-blend-mode:overlay;fill:url(#radial-gradient);}</style><clipPath id="clip-path"><rect class="cls-1" y="-0.13" width="1920" height="1080.26"/></clipPath><linearGradient id="linear-gradient" x1="962.33" y1="539.24" x2="662.79" y2="-578.64" gradientUnits="userSpaceOnUse"><stop offset="0.39" stop-color="#0325ad"/><stop offset="0.54" stop-color="#161618"/></linearGradient><linearGradient id="linear-gradient-2" x1="962.42" y1="539.22" x2="1267.08" y2="1676.22" gradientUnits="userSpaceOnUse"><stop offset="0.1" stop-color="#f0f0f0"/><stop offset="0.44" stop-color="#beff03"/></linearGradient><linearGradient id="linear-gradient-3" x1="957.8" y1="557.78" x2="1268.79" y2="-602.84" gradientUnits="userSpaceOnUse"><stop offset="0.42" stop-color="#ef2121"/><stop offset="0.6" stop-color="#161618"/></linearGradient><radialGradient id="radial-gradient" cx="960" cy="539.87" r="839.32" gradientUnits="userSpaceOnUse"><stop offset="0.65" stop-color="#f0f0f0"/><stop offset="1" stop-color="#f0f0f0" stop-opacity="0"/></radialGradient></defs><g class="cls-2"><g id="Layer_1" data-name="Layer 1"><g class="cls-3"><path class="cls-4" d="M960,539.88H2165.06c0-219.41-60.6-424.65-165.9-600L960,539.87Z"/><path class="cls-4" d="M1999.16,1139.84c105.3-175.32,165.9-380.56,165.9-600H960Z"/><path class="cls-4" d="M960,539.87V-626.41A1160.68,1160.68,0,0,0,386.21-453.93L960,539.87Z"/><path class="cls-4" d="M960,539.87l1039.17-600A1172.44,1172.44,0,0,0,1552.87-487L960,539.87Z"/><path class="cls-4" d="M960,539.88l-982,567a1172.52,1172.52,0,0,0,408.24,426.84L960,539.88Z"/><path class="cls-4" d="M960,539.88h0l-573.78,993.8A1160.68,1160.68,0,0,0,960,1706.16V539.88Z"/><path class="cls-4" d="M1999.16,1139.84,960,539.88h0l592.88,1026.89A1172.44,1172.44,0,0,0,1999.16,1139.84Z"/><path class="cls-4" d="M960,1706.16c12.66.41,25.35.68,38.1.68,200.81,0,389.77-50.74,554.78-140.07L960,539.88Z"/><path class="cls-4" d="M-168.88,539.88c0,205.79,53.35,399.09,146.85,567l982-567Z"/><path class="cls-4" d="M1552.87-487c-165-89.33-354-140.08-554.78-140.08-12.75,0-25.44.29-38.1.69V539.87Z"/><path class="cls-4" d="M386.21-453.93A1172.49,1172.49,0,0,0-22-27.1l982,567Z"/><path class="cls-4" d="M960,539.87-22-27.1c-93.5,167.87-146.85,361.18-146.85,567H960Z"/><path class="cls-5" d="M960,539.88H2165.06c0-219.41-60.6-424.65-165.9-600L960,539.87Z"/><path class="cls-6" d="M1999.16,1139.84c105.3-175.32,165.9-380.56,165.9-600H960Z"/><path class="cls-7" d="M960,539.87V-626.41A1160.68,1160.68,0,0,0,386.21-453.93L960,539.87Z"/><path class="cls-8" d="M960,539.87l1039.17-600A1172.44,1172.44,0,0,0,1552.87-487L960,539.87Z"/><path class="cls-6" d="M960,539.88l-982,567a1172.52,1172.52,0,0,0,408.24,426.84L960,539.88Z"/><path class="cls-8" d="M960,539.88h0l-573.78,993.8A1160.68,1160.68,0,0,0,960,1706.16V539.88Z"/><path class="cls-8" d="M1999.16,1139.84,960,539.88h0l592.88,1026.89A1172.44,1172.44,0,0,0,1999.16,1139.84Z"/><path class="cls-9" d="M960,1706.16c12.66.41,25.35.68,38.1.68,200.81,0,389.77-50.74,554.78-140.07L960,539.88Z"/><path class="cls-10" d="M-168.88,539.88c0,205.79,53.35,399.09,146.85,567l982-567Z"/><path class="cls-11" d="M1552.87-487c-165-89.33-354-140.08-554.78-140.08-12.75,0-25.44.29-38.1.69V539.87Z"/><path class="cls-5" d="M386.21-453.93A1172.49,1172.49,0,0,0-22-27.1l982,567Z"/><path class="cls-8" d="M960,539.87-22-27.1c-93.5,167.87-146.85,361.18-146.85,567H960Z"/><circle class="cls-12" cx="960" cy="539.87" r="839.32"/></g></g></g></svg>